# xmcd
#
# Track frame offsets:
#	182
#	19545
#	33182
#	54287
#	74232
#	90865
#	103742
#	119502
#	136640
#	148315
#	171870
#	190112
#	215255
#
# Disc length: 3225 seconds
# Revision: 1
# Processed by: cddbd v1.5.2PL0 Copyright (c) Steve Scherf et al.
# Submitted via: dBpowerAMP V12.0
#
DISCID=b10c970d
DTITLE=Lori Yates - Breaking Point
DYEAR=1994
DGENRE=Country
TTITLE0=Make a Liar out of Me
TTITLE1=I Don't Wanna Know
TTITLE2=Might Not Be a River
TTITLE3=Throw Stone Roses
TTITLE4=Rebel Angel
TTITLE5=House on Fire
TTITLE6=Sweetheart Avenue
TTITLE7=Any Other Way
TTITLE8=Il Darlin'
TTITLE9=Blue Confession
TTITLE10=Ghost in the House
TTITLE11=Little Wild One
TTITLE12=Supernatural
EXTD=
EXTT0=
EXTT1=
EXTT2=
EXTT3=
EXTT4=
EXTT5=
EXTT6=
EXTT7=
EXTT8=
EXTT9=
EXTT10=
EXTT11=
EXTT12=
PLAYORDER=
